<?xml version="1.0" encoding="UTF-8" standalone="no"?>
<!-- Created with Inkscape (http://www.inkscape.org/) -->

<svg
   width="16.0px"
   height="16.0px"
   viewBox="0 0 16.0 16.0"
   version="1.1"
   id="SVGRoot"
   sodipodi:docname="ui_questionmark.svg"
   inkscape:version="1.3.2 (091e20e, 2023-11-25, custom)"
   xmlns:inkscape="http://www.inkscape.org/namespaces/inkscape"
   xmlns:sodipodi="http://sodipodi.sourceforge.net/DTD/sodipodi-0.dtd"
   xmlns="http://www.w3.org/2000/svg"
   xmlns:svg="http://www.w3.org/2000/svg">
  <sodipodi:namedview
     id="namedview96"
     pagecolor="#ffffff"
     bordercolor="#000000"
     borderopacity="0.25"
     inkscape:showpageshadow="2"
     inkscape:pageopacity="0.0"
     inkscape:pagecheckerboard="0"
     inkscape:deskcolor="#d1d1d1"
     inkscape:document-units="px"
     showgrid="true"
     inkscape:zoom="66.842938"
     inkscape:cx="8.6770573"
     inkscape:cy="8.7144584"
     inkscape:window-width="1920"
     inkscape:window-height="1057"
     inkscape:window-x="-8"
     inkscape:window-y="1072"
     inkscape:window-maximized="1"
     inkscape:current-layer="layer1">
    <inkscape:grid
       type="xygrid"
       id="grid102"
       originx="0"
       originy="0"
       spacingy="1"
       spacingx="1"
       units="px"
       visible="true" />
  </sodipodi:namedview>
  <defs
     id="defs91" />
  <g
     inkscape:label="Layer 1"
     inkscape:groupmode="layer"
     id="layer1">
    <ellipse
       style="fill:#00ffff;stroke-width:1.29876;fill-opacity:1"
       id="path1"
       cx="8"
       cy="8"
       rx="6.9999995"
       ry="7" />
    <circle
       style="fill:#ffffff;fill-opacity:1"
       id="path7"
       cx="8"
       cy="12.529181"
       r="0.89268678" />
    <path
       style="fill:#ffffff;fill-opacity:1"
       d="M 8.8926868,11 7.1073132,10.980966 V 8.9014639 c 0,0 -0.1084157,-1.6606092 1.1482615,-1.6606092 1.2566773,0 1.6371121,-0.4770099 1.6371121,-1.2408547 0,-0.7638448 0.1607282,-2 -1,-2 -1.1607276,0 -2,-0.2684258 -2,1 0,1.2684258 -1,0.2724998 -1,0 0,-0.2724998 0,-2.0158226 2,-2.0079113 C 9.8926868,3 10.892687,3 10.892687,5 c 0,2 0,3.1384813 -1.0000002,3.1534417 -1.0000001,0.01496 -1.0000001,0.029921 -1.0000001,0.7629827 10e-8,0.7330617 10e-8,2.0835756 10e-8,2.0835756 z"
       id="path8" />
  </g>
</svg>
